<?xml version="1.0" encoding="UTF-8"?>
<svg width="28px" height="28px" viewBox="0 0 28 28" version="1.1" xmlns="http://www.w3.org/2000/svg" xmlns:xlink="http://www.w3.org/1999/xlink">
    <!-- Generator: Sketch 47.1 (45422) - http://www.bohemiancoding.com/sketch -->
    <title>icn_option_more_off</title>
    <desc>Created with Sketch.</desc>
    <defs></defs>
    <g id="UI" stroke="none" stroke-width="1" fill="none" fill-rule="evenodd">
        <g id="1_1_ide_more" transform="translate(-619.000000, -327.000000)" stroke="#FFFFFF" stroke-width="2">
            <g id="option_bottom" transform="translate(410.000000, 311.000000)">
                <g id="btn_more_off" transform="translate(199.000000, 6.000000)">
                    <g id="icn_option_more_off" transform="translate(10.000000, 10.000000)">
                        <path d="M21.7781746,5.51471863 L14,13.2928932 L6.22182541,5.51471863 C6.02656326,5.31945648 5.70998077,5.31945648 5.51471863,5.51471863 C5.31945648,5.70998077 5.31945648,6.02656326 5.51471863,6.22182541 L13.2928932,14 L5.51471863,21.7781746 C5.31945648,21.9734367 5.31945648,22.2900192 5.51471863,22.4852814 C5.70998077,22.6805435 6.02656326,22.6805435 6.22182541,22.4852814 L14,14.7071068 L21.7781746,22.4852814 C21.9734367,22.6805435 22.2900192,22.6805435 22.4852814,22.4852814 C22.6805435,22.2900192 22.6805435,21.9734367 22.4852814,21.7781746 L14.7071068,14 L22.4852814,6.22182541 C22.6805435,6.02656326 22.6805435,5.70998077 22.4852814,5.51471863 C22.2900192,5.31945648 21.9734367,5.31945648 21.7781746,5.51471863 Z" id="Combined-Shape"></path>
                    </g>
                </g>
            </g>
        </g>
    </g>
</svg>