<?xml version="1.0" encoding="UTF-8"?>
<svg width="16px" height="16px" viewBox="0 0 16 16" version="1.1" xmlns="http://www.w3.org/2000/svg" xmlns:xlink="http://www.w3.org/1999/xlink">
    <!-- Generator: Sketch 49.3 (51167) - http://www.bohemiancoding.com/sketch -->
    <title>icn_edit</title>
    <desc>Created with Sketch.</desc>
    <defs></defs>
    <g id="Page-1" stroke="none" stroke-width="1" fill="none" fill-rule="evenodd" opacity="0.600000024">
        <g id="主页" transform="translate(-521.000000, -26.000000)" fill="#C3C2C1">
            <g id="option_top" transform="translate(421.000000, 14.000000)">
                <g id="btn_name">
                    <g id="icn_option_edit" transform="translate(100.000000, 12.000000)">
                        <path d="M10.2125913,1.69139734 C10.7308939,1.17309476 11.5690585,1.17092489 12.1027033,1.70456963 L13.9706552,3.57252155 C14.4962326,4.09809899 14.4926928,4.95376819 13.9838275,5.4626335 L6.43267672,13.0137843 C5.91437414,13.5320868 5.07620951,13.5342567 4.54256477,13.000612 L2.67461284,11.13266 C2.14903541,10.6070826 2.15257523,9.75141341 2.66144055,9.2425481 L10.2125913,1.69139734 Z M0.5175368,12.4369514 C0.662580516,11.7117328 1.19815906,11.5418243 1.7318038,12.0754691 L3.59975572,13.943421 C4.12533316,14.4689984 3.97336337,15.01067 3.23827344,15.157688 L1.15047704,15.5752473 C0.425258459,15.720291 -0.0470404662,15.2598377 0.0999775195,14.5247478 L0.5175368,12.4369514 Z" id="Combined-Shape"></path>
                    </g>
                </g>
            </g>
        </g>
    </g>
</svg>