<?xml version="1.0" encoding="utf-8"?>
<!-- Generator: Adobe Illustrator 21.0.0, SVG Export Plug-In . SVG Version: 6.00 Build 0)  -->
<svg version="1.1" id="Layer_1" xmlns="http://www.w3.org/2000/svg" xmlns:xlink="http://www.w3.org/1999/xlink" x="0px" y="0px"
	 viewBox="0 0 18.3 16.9" style="enable-background:new 0 0 18.3 16.9;" xml:space="preserve">
<style type="text/css">
	.st0{opacity:0.5;}
	.st1{fill:#EB802B;}
	.st2{filter:url(#Adobe_OpacityMaskFilter);}
	.st3{fill:#FFFFFF;}
	.st4{mask:url(#mask-2);fill:#EB802B;}
</style>
<title>Page 1</title>
<desc>Created with Sketch.</desc>
<g id="Page-1-" class="st0">
	<g id="操作区-运行中-copy-2" transform="translate(-512.000000, -234.000000)">
		<g id="操作区" transform="translate(98.000000, -11.000000)">
			<g id="Group-9" transform="translate(348.000000, 178.000000)">
				<g id="control" transform="translate(6.000000, 6.000000)">
					<g id="Page-1" transform="translate(60.000000, 59.000000)">
						<path id="Fill-4" class="st1" d="M1.5,8.8c0,0-1.4-3.7-0.2-6.8c0,0,2.8-0.2,5.9,2.4L1.5,8.8z"/>
						<path id="Fill-6" class="st1" d="M16.8,8.8c0,0,1.4-3.7,0.1-6.8c0,0-2.8-0.2-5.9,2.4L16.8,8.8z"/>
						<path id="Fill-8" class="st1" d="M18.2,13.1c-0.1-0.1-0.4-0.3-0.5-0.4c-0.1-0.1-0.1-0.1-0.1-0.1l-0.2-0.2l0-0.1
							c0.1-2.4-0.8-4.5-2.3-6C13.6,4.8,11.6,4,9.1,4c-2.4,0-4.5,0.8-6,2.2c-1.6,1.5-2.4,3.7-2.3,6.1l-0.1,0.1l-0.1,0.1
							c0,0-0.1,0.1-0.1,0.1c-0.1,0.1-0.4,0.4-0.5,0.5c0,0.1-0.1,0.1,0,0.2c0.1,0.1,0.6,0.8,0.9,1.2c1.5,3.1,4.8,4.5,8.2,4.5
							c3.1,0,6.7-1.3,8.2-4.5c0.2-0.3,0.8-1,0.9-1.2C18.3,13.2,18.3,13.2,18.2,13.1"/>
						<g id="Group-12" transform="translate(0.000000, 3.982829)">
							<g id="Clip-11">
							</g>
							<defs>
								<filter id="Adobe_OpacityMaskFilter" filterUnits="userSpaceOnUse" x="0" y="0" width="18.3" height="10.7">
									<feColorMatrix  type="matrix" values="1 0 0 0 0  0 1 0 0 0  0 0 1 0 0  0 0 0 1 0"/>
								</filter>
							</defs>
							<mask maskUnits="userSpaceOnUse" x="0" y="0" width="18.3" height="10.7" id="mask-2">
								<g class="st2">
									<polygon id="path-1" class="st3" points="0,0 18.3,0 18.3,10.6 0,10.6 									"/>
								</g>
							</mask>
							<path id="Fill-10" class="st4" d="M17.5,8.4c0.1-2.5-0.7-4.6-2.3-6.1C13.7,0.8,11.6,0,9.2,0c0,0,0,0,0,0c0,0,0,0,0,0
								c-2.5,0-4.5,0.8-6,2.3C1.6,3.8,0.8,5.8,0.9,8.3c0,0-0.5,0.5-0.8,0.8C0,9.2,0,9.3,0.1,9.4c0.3,0.4,0.9,1.1,0.9,1.2
								c4.2,0.1,5.8-0.5,6.7-0.9c0.5-0.2,0.9-0.4,1.5-0.4c0.6,0,1,0.2,1.5,0.4c0.9,0.4,2.5,1,6.7,0.9c0-0.1,0.7-0.8,1-1.2
								c0.1-0.1,0.1-0.3,0-0.3C18,8.8,17.5,8.4,17.5,8.4"/>
						</g>
					</g>
				</g>
			</g>
		</g>
	</g>
</g>
</svg>
