<?xml version="1.0" encoding="utf-8"?>
<!-- Generator: Adobe Illustrator 21.0.0, SVG Export Plug-In . SVG Version: 6.00 Build 0)  -->
<svg version="1.1" id="Layer_1" xmlns="http://www.w3.org/2000/svg" xmlns:xlink="http://www.w3.org/1999/xlink" x="0px" y="0px"
	 viewBox="0 0 28 28" style="enable-background:new 0 0 28 28;" xml:space="preserve">
<style type="text/css">
	.st0{opacity:0.2;}
</style>
<title>block_time</title>
<desc>Created with Sketch.</desc>
<g class="st0">
	<path d="M10.5,17.5V20h7v-2.5C14.8,15.1,14.1,15,14,15C13.9,15,13.2,15.1,10.5,17.5z"/>
	<path d="M10.5,10.5c2.7,2.4,3.4,2.5,3.5,2.5c0.1,0,0.8-0.1,3.5-2.5V8h-7V10.5z"/>
	<path d="M14,0C6.3,0,0,6.3,0,14s6.3,14,14,14s14-6.3,14-14S21.7,0,14,0z M19.2,16.3l0.3,0.3V20h1c0.6,0,1,0.4,1,1c0,0.6-0.4,1-1,1
		h-1h-11h-1c-0.6,0-1-0.4-1-1c0-0.6,0.4-1,1-1h1v-3.4l0.3-0.3c1.2-1.1,2.1-1.8,2.8-2.3c-0.7-0.5-1.6-1.2-2.8-2.3l-0.3-0.3V8h-1
		c-0.6,0-1-0.4-1-1c0-0.6,0.4-1,1-1h1h11h1c0.6,0,1,0.4,1,1c0,0.6-0.4,1-1,1h-1v3.4l-0.3,0.3c-1.2,1.1-2.1,1.8-2.8,2.3
		C17.1,14.5,18,15.2,19.2,16.3z"/>
</g>
</svg>
