<?xml version="1.0" encoding="utf-8"?>
<!-- Generator: Adobe Illustrator 21.0.0, SVG Export Plug-In . SVG Version: 6.00 Build 0)  -->
<svg version="1.1" id="Layer_1" xmlns="http://www.w3.org/2000/svg" xmlns:xlink="http://www.w3.org/1999/xlink" x="0px" y="0px"
	 viewBox="0 0 16 13" style="enable-background:new 0 0 16 13;" xml:space="preserve">
<style type="text/css">
	.st0{fill:#FFFFFF;}
	.st1{fill:#F5F5F5;}
</style>
<g>
	<path id="path-1" class="st0" d="M5.4,3.2h5.2c1.7,0,3,1.3,3,3v2.6c0,2.2-1.8,4-4,4H6.4c-2.2,0-4-1.8-4-4V6.2
		C2.4,4.5,3.7,3.2,5.4,3.2z M4.8,9.6c0.9,0,1.6-0.7,1.6-1.6S5.7,6.4,4.8,6.4S3.2,7.1,3.2,8S3.9,9.6,4.8,9.6z M11.2,9.6
		c0.9,0,1.6-0.7,1.6-1.6s-0.7-1.6-1.6-1.6c-0.9,0-1.6,0.7-1.6,1.6S10.3,9.6,11.2,9.6z M7.6,10.4c-0.2,0-0.4,0.2-0.4,0.4
		s0.2,0.4,0.4,0.4h0.8c0.2,0,0.4-0.2,0.4-0.4s-0.2-0.4-0.4-0.4H7.6z"/>
</g>
<title>block_mini  copy</title>
<desc>Created with Sketch.</desc>
<g id="CSS_Sprite-">
	<g id="Artboard-2" transform="translate(-317.000000, -78.000000)">
		<g id="block_mini--copy" transform="translate(317.000000, 77.000000)">
			<g id="Group-9" transform="translate(0.000000, 1.777778)">
				<path id="Rectangle-27" class="st1" d="M0.4,4.5l1.2-0.8v5.6L0.4,8.5C0.2,8.3,0,8,0,7.7V5.4C0,5,0.2,4.7,0.4,4.5z"/>
				<path id="Rectangle-27-Copy-2" class="st1" d="M15.6,4.5l-1.2-0.8v5.6l1.2-0.8C15.8,8.3,16,8,16,7.7V5.4C16,5,15.8,4.7,15.6,4.5
					z"/>
				<g id="Path-7" transform="translate(2.400000, 2.400000)">
					<g id="Combined-Shape">
						<path id="path-1_1_" class="st1" d="M3-0.3h5.2c1.7,0,3,1.3,3,3v2.6c0,2.2-1.8,4-4,4H4c-2.2,0-4-1.8-4-4V2.7
							C0,1.1,1.3-0.3,3-0.3z M2.4,6.1C3.3,6.1,4,5.4,4,4.5S3.3,2.9,2.4,2.9S0.8,3.6,0.8,4.5S1.5,6.1,2.4,6.1z M8.8,6.1
							c0.9,0,1.6-0.7,1.6-1.6S9.7,2.9,8.8,2.9S7.2,3.6,7.2,4.5S7.9,6.1,8.8,6.1z M5.2,6.9C5,6.9,4.8,7.1,4.8,7.3S5,7.7,5.2,7.7H6
							c0.2,0,0.4-0.2,0.4-0.4S6.2,6.9,6,6.9H5.2z"/>
					</g>
				</g>
				<path id="Combined-Shape_1_" class="st1" d="M4.4,1.3c0.9-1,2.2-1.6,3.6-1.6s2.7,0.6,3.6,1.6H4.4z"/>
			</g>
		</g>
	</g>
</g>
</svg>
