<?xml version="1.0" encoding="UTF-8"?>
<svg width="96px" height="90px" viewBox="0 0 96 90" version="1.1" xmlns="http://www.w3.org/2000/svg" xmlns:xlink="http://www.w3.org/1999/xlink">
    <!-- Generator: Sketch 48.1 (47250) - http://www.bohemiancoding.com/sketch -->
    <title>gear</title>
    <desc>Created with Sketch.</desc>
    <defs></defs>
    <g id="Artboard-3" stroke="none" stroke-width="1" fill="none" fill-rule="evenodd">
        <g id="gear" fill="#FFFFFF">
            <g id="ic_gear_big" transform="translate(27.000000, 21.000000)">
                <path d="M26.3127633,1.32343352 C27.8522712,4.29389832 29.7516743,6.23019206 32.8154206,6.06962792 C35.9019699,5.90786872 37.590797,3.75310605 38.8135199,0.600000381 C41.0243906,0.880989634 43.2264375,1.38155398 45.3880586,2.11012614 C45.0167168,5.54120807 45.5199792,8.28186748 48.2343088,9.84898637 C50.9943099,11.4424737 53.6620657,10.4494577 56.5002384,8.34072102 C58.2340209,9.79125053 59.7961555,11.3908599 61.1784693,13.1091734 C58.9088668,15.8430603 57.7650279,18.4632452 59.2167733,21.312456 C60.6986465,24.2207958 63.5770894,24.8009397 67.228148,24.5318311 C67.8887508,26.6867528 68.3369302,28.9048231 68.5634702,31.1517895 C65.0458735,32.270686 62.5680485,33.8867073 62.2819469,37.1568631 C61.9976268,40.4066575 64.1286095,42.4235341 67.3643203,44.1294525 C66.7558329,46.2014006 65.9411773,48.2417666 64.9129826,50.2231553 C61.3452842,49.2406524 58.3803495,49.2420016 56.3558715,51.8332153 C54.3483242,54.4027586 55.0355832,57.2535148 56.8184493,60.4448372 C55.1336189,61.8868092 53.3236829,63.148802 51.4194052,64.2226066 C48.9865844,61.5067611 46.5181858,59.9362866 43.4404989,60.9960191 C40.3952518,62.0445818 39.4054233,64.7550644 39.1475151,68.3361701 C36.9521433,68.6319079 34.7226213,68.71598 32.4913307,68.5797455 C31.9136844,65.0977819 30.6836986,62.5356029 27.5951594,61.7655435 C24.5282009,61.0008649 22.2497626,62.6568855 20.1180018,65.4249167 C19.2260752,65.0074486 18.3445609,64.5482616 17.4758576,64.0467155 C16.3300739,63.385197 15.2369644,62.6675328 14.198009,61.8992235 C15.4987099,58.7058031 15.7687629,55.9345412 13.5928261,53.6812927 C11.4725789,51.4857125 8.77974374,51.5939422 5.64864702,52.7004455 C4.43167533,50.7736043 3.41546263,48.7372008 2.60927445,46.6256721 C5.2961652,44.7002831 6.91711693,42.5606468 6.33658403,39.5740639 C5.7627571,36.6219803 3.50461802,35.2428825 0.350065916,34.4594263 C0.345637211,32.2011379 0.565642817,29.931033 1.01919034,27.6829616 C4.23704321,27.5078793 6.69421388,26.5794828 7.81411866,23.8076212 C8.93864241,21.0243273 7.80210269,18.6414508 5.59110341,16.270565 C6.82322533,14.309955 8.22578665,12.5157758 9.76833693,10.896153 C12.5560052,12.4945947 15.1171097,13.048666 17.5611748,11.3373132 C20.058752,9.5884908 20.3750892,6.9156974 19.7746051,3.65476594 C21.8719777,2.65736903 24.0637638,1.87694938 26.3127633,1.32343352 Z M28.3083194,45.2843412 C34.284633,48.7347675 41.9207364,46.6971411 45.3640337,40.7331752 C48.807331,34.7692093 46.7539156,27.1373366 40.7776019,23.6869103 C34.8012883,20.236484 27.1651849,22.2741105 23.7218876,28.2380763 C20.2785903,34.2020422 22.3320058,41.8339149 28.3083194,45.2843412 Z">
                     <animateTransform attributeName="transform" type="rotate" from="0 34.5 34.5" to="360 34.5 34.5" dur="5.5s" repeatCount="indefinite"></animateTransform>
                </path>
            </g>
            <g id="ic_gear_small">
                <path d="M8.03094596,5.0168271 C10.4378653,7.41444226 12.8632394,8.70757921 15.7578025,7.59646054 C18.7512914,6.44736781 19.6512611,3.72312606 19.7901781,0.158524861 C22.0690838,-0.0684500166 24.3950223,0.05816522 26.6817619,0.561380741 C26.2500655,4.12943193 26.7031882,6.98187205 29.4943736,8.59336365 C32.3184848,10.223865 35.0460188,9.14629256 37.9583697,6.93633284 C39.5739185,8.64117623 40.8836486,10.5736126 41.864304,12.647207 C38.7241017,14.58324 36.7126962,16.7502433 37.2260025,19.9911316 C37.73017,23.1743198 40.2306056,24.61958 43.7161778,25.4952414 C43.3710773,27.6743526 42.689861,29.831663 41.6526816,31.8934063 C38.2913378,30.6836981 35.4248572,30.4949483 33.2359108,32.842306 C31.0784567,35.1558923 31.4245721,37.9541982 32.8149002,41.1639453 C30.8037792,42.293553 28.6298044,43.0972571 26.3803473,43.5517432 C25.2095437,40.2926885 23.5553744,38.0399122 20.4213854,37.8207623 C17.3739101,37.6076621 15.4444481,39.4934856 13.8571881,42.4153212 C12.8918276,42.0282153 11.9421034,41.5679888 11.0150624,41.0327614 C9.95834828,40.4226672 8.9712924,39.7383238 8.05670119,38.990162 C9.76780645,36.1763539 10.4161576,33.5803475 8.71919789,31.0645012 C7.01196429,28.5334233 4.34026551,28.1728968 1.06338418,28.7195224 C0.361920331,26.5415164 -0.000307570205,24.2584096 1.95954934e-07,21.9567992 C3.28732315,21.520297 5.73189464,20.393567 6.62340486,17.4775685 C7.52331818,14.5340846 6.09180205,12.2171574 3.56665771,9.9981704 C4.82029275,8.07396048 6.33257415,6.40705908 8.03094596,5.0168271 Z M18.8872147,27.3977935 C21.8636768,29.1162547 25.6667858,28.1014288 27.3816964,25.1311165 C29.096607,22.1608041 28.0739175,18.3598022 25.0974555,16.641341 C22.1209934,14.9228799 18.3178844,15.9377058 16.6029738,18.9080181 C14.8880632,21.8783304 15.9107527,25.6793324 18.8872147,27.3977935 Z">
                     <animateTransform attributeName="transform" type="rotate" from="360 22 22" to="0 22 22" dur="3.5s" repeatCount="indefinite"></animateTransform>
                </path>
            </g>
        </g>
    </g>
</svg>