<?xml version="1.0" encoding="UTF-8"?>
<svg width="40px" height="49px" viewBox="0 0 40 49" version="1.1" xmlns="http://www.w3.org/2000/svg" xmlns:xlink="http://www.w3.org/1999/xlink">
    <!-- Generator: Sketch 49.3 (51167) - http://www.bohemiancoding.com/sketch -->
    <title>icn_trash_off@3x</title>
    <desc>Created with Sketch.</desc>
    <defs></defs>
    <g id="CSS_Sprite-" stroke="none" stroke-width="1" fill="none" fill-rule="evenodd">
        <g id="Artboard-2" transform="translate(-456.000000, -58.000000)" fill="#FFFFFF" fill-rule="nonzero">
            <g id="icn_trash_off" transform="translate(446.000000, 52.000000)">
                <path d="M47.5,10.9812411 L35,10.9812411 L35,8.49062053 C35,7.11496779 33.8808333,6 32.5,6 L27.5,6 C26.1191667,6 25,7.11496779 25,8.49062053 L25,10.9812411 L12.5,10.9812411 C11.1191667,10.9812411 10,12.0962089 10,13.4718617 L10,15.9624823 L50,15.9624823 L50,13.4718617 C50,12.0962089 48.8808334,10.9812411 47.5,10.9812411 Z M12.6647068,52.5093794 C12.6647068,53.8850321 13.7838734,55 15.1647068,55 L45.1647068,55 C46.5455401,55 47.6647068,53.8850321 47.6647068,52.5093794 L47.6647068,19.3011052 L12.6647068,19.3011052 L12.6647068,52.5093794 Z M37.6647068,26.7729669 C37.6647068,25.3973141 38.7838735,24.2823463 40.1647068,24.2823463 C41.5455401,24.2823463 42.6647068,25.3973141 42.6647068,26.7729669 L42.6647068,47.5281383 C42.6647068,48.903791 41.5455401,50.0187589 40.1647068,50.0187589 C38.7838735,50.0187589 37.6647068,48.903791 37.6647068,47.5281383 L37.6647068,26.7729669 Z M27.6647068,26.7729669 C27.6647068,25.3973141 28.7838734,24.2823463 30.1647068,24.2823463 C31.5455401,24.2823463 32.6647068,25.3973141 32.6647068,26.7729669 L32.6647068,47.5281383 C32.6647068,48.903791 31.5455401,50.0187589 30.1647068,50.0187589 C28.7838734,50.0187589 27.6647068,48.903791 27.6647068,47.5281383 L27.6647068,26.7729669 Z M17.6647068,26.7729669 C17.6647068,25.3973141 18.7838734,24.2823463 20.1647067,24.2823463 C21.5455401,24.2823463 22.6647068,25.3973141 22.6647068,26.7729669 L22.6647068,47.5281383 C22.6647068,48.903791 21.5455401,50.0187589 20.1647067,50.0187589 C18.7838734,50.0187589 17.6647068,48.903791 17.6647068,47.5281383 L17.6647068,26.7729669 Z" id="Shape-Copy-10"></path>
            </g>
        </g>
    </g>
</svg>