<svg xmlns="http://www.w3.org/2000/svg" xmlns:xlink="http://www.w3.org/1999/xlink" width="30px" height="30px" viewBox="0 0 30 30" version="1.1">
    <!-- Generator: Sketch 49.3 (51167) - http://www.bohemiancoding.com/sketch -->
    <title>icn_stop</title>
    <desc>Created with Sketch.</desc>
    <defs/>
    <g id="Page-1" stroke="none" stroke-width="1" fill="none" fill-rule="evenodd">
        <g id="操作区-运行中" transform="translate(-34.000000, -333.000000)" fill="#FFFFFF">
            <g id="index_blocks_flat">
                <g id="btn_play" transform="translate(2.000000, 323.000000)">
                    <g id="icn_stop" transform="translate(32.000000, 10.000000)">
                        <path d="M20,4 L23,4 C24.1045695,4 25,4.8954305 25,6 L25,24 C25,25.1045695 24.1045695,26 23,26 L20,26 C18.8954305,26 18,25.1045695 18,24 L18,6 C18,4.8954305 18.8954305,4 20,4 Z M7,4 L10,4 C11.1045695,4 12,4.8954305 12,6 L12,24 C12,25.1045695 11.1045695,26 10,26 L7,26 C5.8954305,26 5,25.1045695 5,24 L5,6 C5,4.8954305 5.8954305,4 7,4 Z" id="Combined-Shape"/>
                    </g>
                </g>
            </g>
        </g>
    </g>
</svg>