<?xml version="1.0" standalone="no"?><!DOCTYPE svg PUBLIC "-//W3C//DTD SVG 1.1//EN" "http://www.w3.org/Graphics/SVG/1.1/DTD/svg11.dtd"><svg t="1508567609843" class="icon" style="" viewBox="0 0 1024 1024" version="1.1" xmlns="http://www.w3.org/2000/svg" p-id="2340" xmlns:xlink="http://www.w3.org/1999/xlink" width="32" height="32"><defs><style type="text/css"></style></defs><path d="M740.59776 162.57536c33.92512 0 61.696 34.10432 61.696 75.79136v547.97312c0 41.68192-27.77088 75.78112-61.696 75.78112h-30.83776c-33.93024 0-61.696-34.0992-61.696-75.78112V238.36672c0-41.68704 27.76576-75.79136 61.696-75.79136h30.83776zM314.2912 162.57536c33.93024 0 61.696 34.10432 61.696 75.79136v547.97312c0 41.68192-27.76576 75.78112-61.696 75.78112h-30.83264c-33.93536 0-61.70112-34.0992-61.70112-75.78112V238.36672c0-41.68704 27.76576-75.79136 61.70112-75.79136h30.83264z" fill="#965e21" p-id="2341"></path></svg>